<?xml version="1.0" encoding="UTF-8" standalone="no"?>
<!-- Created with Inkscape (http://www.inkscape.org/) -->

<svg
   xmlns:dc="http://purl.org/dc/elements/1.1/"
   xmlns:cc="http://creativecommons.org/ns#"
   xmlns:rdf="http://www.w3.org/1999/02/22-rdf-syntax-ns#"
   xmlns:svg="http://www.w3.org/2000/svg"
   xmlns="http://www.w3.org/2000/svg"
   xmlns:sodipodi="http://sodipodi.sourceforge.net/DTD/sodipodi-0.dtd"
   xmlns:inkscape="http://www.inkscape.org/namespaces/inkscape"
   width="4.3510346in"
   height="1.0322272in"
   viewBox="0 0 391.59312 92.900443"
   id="svg2"
   version="1.1"
   inkscape:version="0.92.3 (2405546, 2018-03-11)"
   sodipodi:docname="bp_logo_outline.svg">
  <title
     id="title4138">Bridgeport Logo</title>
  <defs
     id="defs4" />
  <sodipodi:namedview
     id="base"
     pagecolor="#c4c6c4"
     bordercolor="#666666"
     borderopacity="1.0"
     inkscape:pageopacity="0"
     inkscape:pageshadow="2"
     inkscape:zoom="1.4142136"
     inkscape:cx="193.61833"
     inkscape:cy="23.19087"
     inkscape:document-units="px"
     inkscape:current-layer="g4300"
     showgrid="false"
     inkscape:window-width="1327"
     inkscape:window-height="740"
     inkscape:window-x="39"
     inkscape:window-y="0"
     inkscape:window-maximized="1"
     fit-margin-top="10"
     fit-margin-left="10"
     fit-margin-right="10"
     fit-margin-bottom="10"
     units="in" />
  <metadata
     id="metadata7">
    <rdf:RDF>
      <cc:Work
         rdf:about="">
        <dc:format>image/svg+xml</dc:format>
        <dc:type
           rdf:resource="http://purl.org/dc/dcmitype/StillImage" />
        <dc:title>Bridgeport Logo</dc:title>
        <cc:license
           rdf:resource="http://creativecommons.org/licenses/by/4.0/" />
        <dc:date>2/25/2018</dc:date>
        <dc:creator>
          <cc:Agent>
            <dc:title>Kurt Jacobson</dc:title>
          </cc:Agent>
        </dc:creator>
      </cc:Work>
      <cc:License
         rdf:about="http://creativecommons.org/licenses/by/4.0/">
        <cc:permits
           rdf:resource="http://creativecommons.org/ns#Reproduction" />
        <cc:permits
           rdf:resource="http://creativecommons.org/ns#Distribution" />
        <cc:requires
           rdf:resource="http://creativecommons.org/ns#Notice" />
        <cc:requires
           rdf:resource="http://creativecommons.org/ns#Attribution" />
        <cc:permits
           rdf:resource="http://creativecommons.org/ns#DerivativeWorks" />
      </cc:License>
    </rdf:RDF>
  </metadata>
  <g
     inkscape:label="Layer 1"
     inkscape:groupmode="layer"
     id="layer1"
     transform="translate(-154.45699,-269.56352)"
     style="display:inline">
    <g
       transform="translate(13.542705,59.397493)"
       id="g4300"
       inkscape:export-xdpi="141.5677"
       inkscape:export-ydpi="141.5677"
       inkscape:groupmode="layer"
       style="display:inline">
      <path
         id="path4271"
         style="font-style:normal;font-variant:normal;font-weight:normal;font-stretch:normal;font-size:medium;line-height:125%;font-family:Calibri;-inkscape-font-specification:'Calibri, Normal';text-align:start;letter-spacing:0px;word-spacing:0px;writing-mode:lr-tb;text-anchor:start;fill:#d21b20;fill-opacity:1;stroke:#ffffff;stroke-width:5;stroke-linecap:butt;stroke-linejoin:miter;stroke-miterlimit:4;stroke-dasharray:none;stroke-opacity:1"
         d="m 517.38795,263.93871 c 0,0.0176 -0.005,0.0331 -0.0131,0.0462 -0.009,0.0132 -0.0278,0.0242 -0.0571,0.033 -0.0293,0.009 -0.0702,0.0154 -0.12288,0.0198 -0.0527,0.004 -0.12286,0.007 -0.21065,0.007 -0.0761,0 -0.13899,-0.003 -0.18871,-0.007 -0.0468,-0.004 -0.0849,-0.0112 -0.11413,-0.0198 -0.0293,-0.011 -0.0527,-0.0253 -0.0702,-0.0429 -0.0146,-0.0176 -0.0278,-0.0396 -0.0395,-0.066 l -0.52224,-1.0072 c -0.0614,-0.11447 -0.12577,-0.21904 -0.1931,-0.31371 -0.0644,-0.0969 -0.14193,-0.17943 -0.2326,-0.24767 -0.0907,-0.0704 -0.19749,-0.12438 -0.32036,-0.16182 -0.12288,-0.0396 -0.27064,-0.0594 -0.44326,-0.0594 h -0.50469 v 1.81956 c 0,0.0176 -0.007,0.0331 -0.0219,0.0462 -0.0116,0.0132 -0.0322,0.0242 -0.0614,0.0331 -0.0264,0.007 -0.0644,0.0121 -0.11413,0.0165 -0.0468,0.007 -0.10675,0.01 -0.17993,0.01 -0.0732,0 -0.1346,-0.003 -0.18432,-0.01 -0.0468,-0.004 -0.0849,-0.0102 -0.11413,-0.0165 -0.0293,-0.009 -0.0498,-0.0198 -0.0614,-0.0331 -0.0116,-0.0132 -0.0175,-0.0286 -0.0175,-0.0462 v -3.95613 c 0,-0.0859 0.0293,-0.14531 0.0877,-0.17833 0.0614,-0.0352 0.12585,-0.0528 0.19311,-0.0528 h 1.20686 c 0.14336,0 0.26186,0.003 0.35548,0.01 0.0966,0.004 0.18286,0.0102 0.25893,0.0165 0.21942,0.0286 0.41252,0.0737 0.5793,0.13539 0.16969,0.0617 0.31159,0.1398 0.42569,0.23446 0.11413,0.0947 0.19894,0.20364 0.25454,0.32693 0.0585,0.12108 0.0877,0.25537 0.0877,0.40287 0,0.14311 -0.0263,0.2719 -0.079,0.38637 -0.0497,0.11228 -0.12286,0.21245 -0.21943,0.30051 -0.0966,0.0859 -0.21211,0.16072 -0.3467,0.22456 -0.13459,0.0638 -0.28526,0.11778 -0.45202,0.16181 0.0936,0.0308 0.17846,0.0704 0.25454,0.11888 0.0761,0.0462 0.1463,0.10235 0.21065,0.16842 0.0673,0.066 0.13023,0.142 0.18871,0.22786 0.0584,0.0859 0.117,0.18272 0.17554,0.2906 l 0.50908,0.94115 c 0.0409,0.0793 0.0673,0.13539 0.079,0.16841 0.0116,0.0308 0.0175,0.0551 0.0175,0.0727 z m -1.13665,-3.00178 c 0,-0.16731 -0.0497,-0.30821 -0.14922,-0.42269 -0.0995,-0.11668 -0.26624,-0.20035 -0.50029,-0.25098 -0.0732,-0.0154 -0.15655,-0.0265 -0.25015,-0.0331 -0.0907,-0.007 -0.21066,-0.01 -0.35987,-0.01 h -0.63635 v 1.4398 h 0.73729 c 0.19895,0 0.37011,-0.0176 0.51347,-0.0528 0.14628,-0.0374 0.26771,-0.0881 0.36425,-0.15191 0.0966,-0.066 0.16677,-0.1431 0.21066,-0.23115 0.0468,-0.0881 0.0702,-0.18383 0.0702,-0.2873 z m -0.882,-3.64404 c -2.57233,0 -4.66798,2.09564 -4.66798,4.66798 0,2.57231 2.09565,4.66796 4.66798,4.66796 2.57232,0 4.66797,-2.09565 4.66797,-4.66796 0,-2.57234 -2.09565,-4.66798 -4.66797,-4.66798 z m 0,1 c 2.03188,0 3.66797,1.63608 3.66797,3.66798 0,2.03187 -1.63609,3.66796 -3.66797,3.66796 -2.03189,0 -3.66797,-1.63609 -3.66797,-3.66796 0,-2.0319 1.63608,-3.66798 3.66797,-3.66798 z m -215.10496,34.81529 c -2.38478,-0.93118 -4.2837,-3.12988 -4.78962,-5.54573 -0.10364,-0.495 -0.0612,-1.66733 0.0944,-2.60518 1.31279,-7.91255 12.31619,-15.96575 22.75375,-16.65309 l 2.78292,-0.18327 4.48415,-7.5788 -1.725,0.73077 c -2.63908,1.118 -6.53837,2.46531 -8.98787,2.65598 -4.05242,0.16769 -6.63766,-0.83632 -8.40912,-4.46574 -0.62192,0.39338 -0.43287,0.28353 -1.73687,1.05289 -2.87264,1.6948 -5.52935,2.42728 -8.84114,2.43758 -3.21486,0.01 -3.9811,-0.27395 -6.16055,-2.2829 l -1.29194,-1.19086 -1.89482,0.9565 c -4.66101,2.35287 -8.45998,3.24368 -11.31991,2.65438 -3.17789,-0.82374 -4.37767,-1.66752 -6.21854,-4.55265 l -2.38212,1.37321 c -5.87529,3.38688 -13.41274,4.42598 -16.20025,2.23332 -1.5521,-1.22089 -2.05815,-3.77506 -1.21241,-6.11942 0.2307,-0.6395 2.37825,-4.47022 4.77233,-8.51272 2.39408,-4.0425 4.30919,-7.39489 4.25578,-7.44976 -0.0534,-0.0549 -1.5597,0.71257 -3.34733,1.70543 -3.62621,2.01402 -5.33428,2.57579 -6.98416,2.29704 -2.45913,-0.41546 -3.91608,-2.0946 -3.91608,-4.51329 0,-0.98093 -0.0618,-1.06097 -0.675,-0.8737 -1.61299,0.49262 -2.55077,1.00738 -3.38407,1.8575 -0.49001,0.49991 -3.52343,5.37699 -6.74093,10.83796 l -5.85,9.92902 -6.39947,0.005 -6.39946,0.005 0.5972,-0.97499 c 1.24177,-2.02734 12.64786,-21.54731 13.08751,-22.39749 0.25299,-0.48923 0.37899,-1.10056 0.28,-1.35851 -0.28041,-0.73072 -2.14998,-0.57383 -3.9371,0.33036 -0.86896,0.43967 -1.6809,0.69618 -1.8043,0.57004 -0.37535,-0.38366 2.00898,-2.21811 3.79478,-2.91963 1.53675,-0.60369 2.3302,-0.67097 9.25584,-0.78497 4.16625,-0.0686 7.575,-0.0366 7.575,0.0712 0,0.10772 -0.33392,0.68727 -0.74205,1.28789 -0.40813,0.60062 -0.6914,1.14269 -0.62948,1.20461 0.0619,0.0619 0.76709,-0.38905 1.56704,-1.00213 1.79703,-1.37723 5.14697,-3.0132 6.71122,-3.27748 1.71172,-0.28919 4.25136,0.52703 5.21941,1.67749 0.42794,0.50858 0.92891,1.5237 1.11326,2.25582 l 0.33518,1.33113 1.38771,-0.80311 c 0.76324,-0.44172 1.87964,-1.18721 2.48088,-1.65666 l 1.18788,-0.97978 12.56763,-0.004 -13.13645,23.06685 c -0.40577,0.69317 1.29879,0.89012 3.77051,-0.44016 1.59875,-0.86044 2.52563,-1.48593 3.14275,-1.92339 0.25156,-4.46968 1.86254,-7.16118 3.78914,-9.96467 2.25161,-3.20617 6.43901,-7.24094 9.24925,-8.91207 3.64988,-2.17046 7.06728,-3.478 10.76824,-3.64953 3.48063,-0.16131 4.56492,0.32035 6.4943,1.79356 l 1.32105,1.00869 8.95252,-15.24919 h 12.79894 l -21.52917,36.76371 c -0.16899,0.40899 0.0374,0.79308 0.32918,1.03536 0.41352,0.34319 0.70319,0.31346 1.90892,-0.19594 1.66325,-0.75023 3.27766,-1.78322 4.62161,-2.83058 2.11887,-7.50697 5.5984,-11.25085 9.11596,-14.70639 4.94969,-4.80088 10.68261,-7.44527 16.17513,-7.46098 2.68006,-0.008 4.62372,0.67825 6.36939,2.24776 0.82402,0.74086 1.52148,1.55505 1.58346,1.55505 l 1.27109,-2.30802 12.6602,8.6e-4 c 0,0.0734 -2.31405,4.00912 -4.95329,8.58399 -2.63923,4.57487 -4.74493,8.3716 -4.67934,8.43721 1.03315,-0.54971 2.10128,-1.02852 3.09121,-1.38311 3.94387,-6.93296 8.6832,-10.45312 14.04752,-13.1283 5.97658,-2.87754 13.42631,-3.51657 18.56816,-1.59276 1.77092,0.66258 4.42604,2.83809 5.13352,4.20622 2.11128,4.08276 -3.60283,9.87443 -11.82984,11.99046 -3.55882,0.91536 -8.34462,0.75167 -11.08043,-0.37894 l -1.89781,-0.78432 -1.43499,2.1982 c -2.44505,3.74544 -2.6398,6.67611 -0.52915,7.96304 1.54287,0.94074 5.58941,0.81694 9.53273,-0.29168 3.16398,-0.8895 7.97482,-2.79048 11.17694,-4.41652 l 1.74993,-0.8886 20.48117,-34.68672 12.94577,0.009 -9.0783,15.26029 1.4309,-0.62021 c 5.53401,-2.39866 9.49259,-2.69716 13.344,-0.0308 1.79394,1.24196 2.52748,3.48892 2.52217,5.8364 -0.007,3.22653 -1.17816,7.14317 -2.62867,8.79295 -0.5631,0.64045 0.0349,0.50236 0.89857,0.27653 3.50652,-8.01054 9.02828,-12.05732 14.65955,-15.10708 6.86025,-3.71536 20.04642,-5.18527 24.725,3.3652 6.77201,-4.40792 10.74944,-3.48972 15.01883,-3.53247 l 7.22894,0.0106 -1.22861,2.53231 c 0.11706,0 1.09351,-0.54998 2.18902,-1.31766 2.93154,-2.05429 4.89365,-3.44577 7.52571,-3.03942 2.42705,0.37472 4.10537,1.71748 4.48917,5.93521 4.45067,-2.57424 6.80245,-7.64918 8.90979,-11.22112 l 4.16715,-7.07524 12.67097,0.0191 -6.86516,11.94071 8.69433,0.0363 -1.30014,2.39506 -9,0.016 -5.35038,9.06964 c -4.03215,7.18317 -8.13998,11.47081 -4.54337,18.06365 l -12.8479,0.006 c -3.80305,-6.89785 0.34745,-9.86626 6.39165,-20.96798 -4.92361,2.76674 -7.51421,4.65962 -11.07153,3.64083 -1.98415,-0.61644 -3.06889,-2.364 -3.13844,-5.38535 -2.8052,0.80776 -5.07206,4.57039 -6.26896,6.60926 l -9.59268,16.25324 -12.52839,-0.13245 13.25036,-22.63496 c 0.19064,-0.29217 0.0666,-1.01098 -0.20792,-1.23887 -1.99198,-0.50576 -4.09212,0.98491 -5.84245,2.11478 0.93343,6.76752 -2.54582,10.84486 -5.40017,13.80029 -5.82054,5.88307 -13.51712,9.28667 -20.99999,9.28667 -9.53488,3.4e-4 -13.41485,-4.7233 -13.79823,-10.58093 -1.62044,0.13014 -3.04163,0.66928 -4.20607,1.64345 -2.48024,2.07495 -4.99873,5.69881 -12.12495,8.20711 -2.44484,0.78033 -5.61767,1.02498 -7.68536,0.5926 -1.59661,-0.33388 -3.46482,-1.54178 -4.18376,-2.70505 -0.35782,-0.57895 -0.27206,-0.37937 -0.75736,-1.31514 l -6.12632,9.86249 125.08217,0.15592 -6.35238,10.64901 -177.09763,-0.0208 -1.2,1.94488 c -5.10061,8.26672 -12.78941,12.77409 -21.75,12.75039 -2.08431,-0.006 -3.24645,-0.16234 -4.32563,-0.58374 z m 6.072,-5.09333 c 2.39087,-1.13107 4.87233,-3.59247 6.74254,-6.68804 0.7761,-1.28461 1.41109,-2.46585 1.41109,-2.625 0,-0.4219 -2.61225,-0.35381 -5.14861,0.13419 -4.27359,0.82226 -7.80579,2.61209 -9.1684,4.64581 -0.97588,1.45652 -0.95048,3.69042 0.0534,4.69428 1.10045,1.10044 3.58144,1.03497 6.11,-0.16124 z m 71.9831,-29.26689 c -0.0437,-0.0404 -1.41011,0.52616 -3.03643,1.259 -6.0661,2.73339 -9.62875,3.54187 -15.64304,3.54989 -3.55796,0.005 -4.53614,-0.10002 -6.39896,-0.68532 -4.69539,-1.52242 -7.28095,-5.69336 -6.35156,-10.29653 -6.41965,2.66723 -10.62991,11.29316 -13.1006,15.41245 l 39.05455,0.225 z m 59.90917,0.38932 c 2.69634,-1.36549 5.66289,-5.24889 9.15165,-11.98009 4.54626,-8.7715 4.75185,-12.67894 0.68766,-13.06945 -1.95282,-0.18765 -3.44956,0.58702 -5.81601,3.01019 -4.41077,4.51649 -8.66318,12.54964 -9.60644,18.14736 -0.28634,1.69924 -0.26567,2.19225 0.13111,3.1281 0.76488,1.80402 2.82747,2.09301 5.45203,0.76389 z M 292.90802,248.7741 c 1.49162,-2.36883 4.23024,-6.84763 4.42232,-9.64037 0.32974,-4.79419 -5.60041,-5.56829 -12.11944,3.97767 -2.73901,4.01081 -4.02705,5.92803 -5.16493,8.72849 -1.18712,2.92164 -0.60875,5.58295 1.41723,6.15189 4.92709,1.38364 8.12249,-3.94155 11.44482,-9.21768 z m 107.22655,8.641 c 1.7322,-0.83854 4.70794,-3.44332 6.45994,-5.65464 0.82882,-1.04612 2.17208,-3.25783 2.98503,-4.91493 3.23594,-6.59606 3.04096,-10.44262 -0.52869,-10.43023 -1.20479,0.004 -3.88793,1.66925 -5.72956,3.55556 -3.47459,3.55888 -8.43131,12.50928 -8.43131,15.22448 0,1.76943 1.56804,3.24912 3.1428,2.96571 0.49104,-0.0884 1.43685,-0.42405 2.10179,-0.74595 z m -71.09461,-3.67239 c 3.82978,-5.43532 5.46674,-8.41277 7.06254,-13.184 1.8306,-5.47323 -4.47277,-5.63783 -7.99788,-1.68938 -3.6493,4.08755 -7.66343,9.34433 -9.02551,13.73614 -2.29828,7.41038 6.17923,6.50423 9.96085,1.13724 z m 39.99149,-5.20724 c 4.09194,-2.0391 7.82962,-9.45189 5.79283,-11.48868 -0.9209,-0.9209 -2.59789,-0.8369 -4.25057,0.21291 -1.62657,1.03321 -4.95237,4.58115 -6.58217,7.02181 -1.55847,2.33382 -1.57614,3.25482 -0.082,4.27016 1.47219,1.00038 3.09211,0.99525 5.12185,-0.0162 z m -212.45848,19.82702 148.91667,0.0475 c 1.7e-4,0.0261 -0.91092,0.54662 -2.02467,1.15669 -3.53229,1.93488 -8.03428,6.75497 -9.37933,9.26823 l -143.68867,-0.15632 z m 6.16588,-10.06025 3.40112,-0.0102 21.11752,-35.90679 -3.35824,-0.0218 1.62473,-2.75089 h 16.42955 c 18.3931,0 18.09464,-0.0307 20.52799,2.11123 0.79454,0.69938 1.59475,1.79357 1.99914,2.73361 1.96026,4.55676 -1.25863,9.4227 -8.34953,12.6218 -1.09514,0.49408 -2.04526,0.94906 -2.1114,1.01108 -0.0661,0.062 0.63268,0.83619 1.55292,1.72039 2.05007,1.96979 2.78093,3.98708 2.53853,7.00683 -0.22358,2.78525 -1.36638,4.89722 -4.13959,7.65019 -1.94113,1.92697 -2.83143,2.5489 -5.42685,3.79104 -3.75746,1.79827 -5.79136,2.36598 -9.88421,2.75885 -0.84526,0.0811 -3.91139,0.19711 -7.95486,0.19077 l -29.64062,-0.0464 z m 31.70057,-1.17736 c 3.51726,-1.89259 7.05025,-6.88603 7.88642,-11.14646 0.44031,-2.24348 -0.24051,-4.73059 -1.6924,-6.18247 -1.00155,-1.00157 -1.02499,-1.00773 -3.4995,-0.9209 l -2.49119,0.0874 -10.93787,19.15771 4.41009,0.0633 c 4.16068,0.0597 4.05599,-0.003 6.32445,-1.05859 z m 9.9963,-22.18389 c 3.23869,-1.24093 5.85337,-3.90137 6.74456,-6.86258 0.52735,-1.75226 0.11182,-3.4474 -1.17454,-4.79094 -0.90395,-0.94417 -1.00987,-0.9747 -3.34962,-0.96541 l -2.41615,0.01 -7.61368,13.28234 c 3.65768,0.27142 6.00417,0.0187 7.80943,-0.67299 z m 64.60425,-3.54835 c -1.86694,-0.46744 -3.15,-2.26981 -3.15,-4.42491 0,-3.27947 2.68331,-6.30764 6.27108,-7.07708 3.91663,-0.83997 7.11165,2.08948 6.28614,5.7636 -0.85382,3.80004 -5.59586,6.69268 -9.40722,5.73839 z"
         inkscape:connector-curvature="0"
         sodipodi:nodetypes="csccsccccccccscscccscccsscsscccccsccscccscccccccccsccscccccsssssssssscccsccsccssscsccsssscssscsscccsssccsssscssssccccccsccssscccccccccscccscccsssscssssccccsscscsccccsscccccccccccccccccccccccscsscccccsccccssssscccsccccccssssscssssssscsscssccssssscssssccccsccccccccsssscsssscscccssscccccsccccccsssss" />
      <path
         sodipodi:nodetypes="csccsccccccccscscccscccsscsscccccsccscccscccccccccsccscccccsssssssssscccsccsccssscsccsssscssscsscccsssccsssscssssccccccsccssscccccccccscccscccsssscssssccccsscscsccccsscccccccccccccccccccccccscsscccccsccccssssscccsccccccssssscssssssscsscssccssssscssssccccsccccccccsssscsssscscccssscccccsccccccsssss"
         inkscape:connector-curvature="0"
         d="m 517.38795,263.93871 c 0,0.0176 -0.005,0.0331 -0.0131,0.0462 -0.009,0.0132 -0.0278,0.0242 -0.0571,0.033 -0.0293,0.009 -0.0702,0.0154 -0.12288,0.0198 -0.0527,0.004 -0.12286,0.007 -0.21065,0.007 -0.0761,0 -0.13899,-0.003 -0.18871,-0.007 -0.0468,-0.004 -0.0849,-0.0112 -0.11413,-0.0198 -0.0293,-0.011 -0.0527,-0.0253 -0.0702,-0.0429 -0.0146,-0.0176 -0.0278,-0.0396 -0.0395,-0.066 l -0.52224,-1.0072 c -0.0614,-0.11447 -0.12577,-0.21904 -0.1931,-0.31371 -0.0644,-0.0969 -0.14193,-0.17943 -0.2326,-0.24767 -0.0907,-0.0704 -0.19749,-0.12438 -0.32036,-0.16182 -0.12288,-0.0396 -0.27064,-0.0594 -0.44326,-0.0594 h -0.50469 v 1.81956 c 0,0.0176 -0.007,0.0331 -0.0219,0.0462 -0.0116,0.0132 -0.0322,0.0242 -0.0614,0.0331 -0.0264,0.007 -0.0644,0.0121 -0.11413,0.0165 -0.0468,0.007 -0.10675,0.01 -0.17993,0.01 -0.0732,0 -0.1346,-0.003 -0.18432,-0.01 -0.0468,-0.004 -0.0849,-0.0102 -0.11413,-0.0165 -0.0293,-0.009 -0.0498,-0.0198 -0.0614,-0.0331 -0.0116,-0.0132 -0.0175,-0.0286 -0.0175,-0.0462 v -3.95613 c 0,-0.0859 0.0293,-0.14531 0.0877,-0.17833 0.0614,-0.0352 0.12585,-0.0528 0.19311,-0.0528 h 1.20686 c 0.14336,0 0.26186,0.003 0.35548,0.01 0.0966,0.004 0.18286,0.0102 0.25893,0.0165 0.21942,0.0286 0.41252,0.0737 0.5793,0.13539 0.16969,0.0617 0.31159,0.1398 0.42569,0.23446 0.11413,0.0947 0.19894,0.20364 0.25454,0.32693 0.0585,0.12108 0.0877,0.25537 0.0877,0.40287 0,0.14311 -0.0263,0.2719 -0.079,0.38637 -0.0497,0.11228 -0.12286,0.21245 -0.21943,0.30051 -0.0966,0.0859 -0.21211,0.16072 -0.3467,0.22456 -0.13459,0.0638 -0.28526,0.11778 -0.45202,0.16181 0.0936,0.0308 0.17846,0.0704 0.25454,0.11888 0.0761,0.0462 0.1463,0.10235 0.21065,0.16842 0.0673,0.066 0.13023,0.142 0.18871,0.22786 0.0584,0.0859 0.117,0.18272 0.17554,0.2906 l 0.50908,0.94115 c 0.0409,0.0793 0.0673,0.13539 0.079,0.16841 0.0116,0.0308 0.0175,0.0551 0.0175,0.0727 z m -1.13665,-3.00178 c 0,-0.16731 -0.0497,-0.30821 -0.14922,-0.42269 -0.0995,-0.11668 -0.26624,-0.20035 -0.50029,-0.25098 -0.0732,-0.0154 -0.15655,-0.0265 -0.25015,-0.0331 -0.0907,-0.007 -0.21066,-0.01 -0.35987,-0.01 h -0.63635 v 1.4398 h 0.73729 c 0.19895,0 0.37011,-0.0176 0.51347,-0.0528 0.14628,-0.0374 0.26771,-0.0881 0.36425,-0.15191 0.0966,-0.066 0.16677,-0.1431 0.21066,-0.23115 0.0468,-0.0881 0.0702,-0.18383 0.0702,-0.2873 z m -0.882,-3.64404 c -2.57233,0 -4.66798,2.09564 -4.66798,4.66798 0,2.57231 2.09565,4.66796 4.66798,4.66796 2.57232,0 4.66797,-2.09565 4.66797,-4.66796 0,-2.57234 -2.09565,-4.66798 -4.66797,-4.66798 z m 0,1 c 2.03188,0 3.66797,1.63608 3.66797,3.66798 0,2.03187 -1.63609,3.66796 -3.66797,3.66796 -2.03189,0 -3.66797,-1.63609 -3.66797,-3.66796 0,-2.0319 1.63608,-3.66798 3.66797,-3.66798 z m -215.10496,34.81529 c -2.38478,-0.93118 -4.2837,-3.12988 -4.78962,-5.54573 -0.10364,-0.495 -0.0612,-1.66733 0.0944,-2.60518 1.31279,-7.91255 12.31619,-15.96575 22.75375,-16.65309 l 2.78292,-0.18327 4.48415,-7.5788 -1.725,0.73077 c -2.63908,1.118 -6.53837,2.46531 -8.98787,2.65598 -4.05242,0.16769 -6.63766,-0.83632 -8.40912,-4.46574 -0.62192,0.39338 -0.43287,0.28353 -1.73687,1.05289 -2.87264,1.6948 -5.52935,2.42728 -8.84114,2.43758 -3.21486,0.01 -3.9811,-0.27395 -6.16055,-2.2829 l -1.29194,-1.19086 -1.89482,0.9565 c -4.66101,2.35287 -8.45998,3.24368 -11.31991,2.65438 -3.17789,-0.82374 -4.37767,-1.66752 -6.21854,-4.55265 l -2.38212,1.37321 c -5.87529,3.38688 -13.41274,4.42598 -16.20025,2.23332 -1.5521,-1.22089 -2.05815,-3.77506 -1.21241,-6.11942 0.2307,-0.6395 2.37825,-4.47022 4.77233,-8.51272 2.39408,-4.0425 4.30919,-7.39489 4.25578,-7.44976 -0.0534,-0.0549 -1.5597,0.71257 -3.34733,1.70543 -3.62621,2.01402 -5.33428,2.57579 -6.98416,2.29704 -2.45913,-0.41546 -3.91608,-2.0946 -3.91608,-4.51329 0,-0.98093 -0.0618,-1.06097 -0.675,-0.8737 -1.61299,0.49262 -2.55077,1.00738 -3.38407,1.8575 -0.49001,0.49991 -3.52343,5.37699 -6.74093,10.83796 l -5.85,9.92902 -6.39947,0.005 -6.39946,0.005 0.5972,-0.97499 c 1.24177,-2.02734 12.64786,-21.54731 13.08751,-22.39749 0.25299,-0.48923 0.37899,-1.10056 0.28,-1.35851 -0.28041,-0.73072 -2.14998,-0.57383 -3.9371,0.33036 -0.86896,0.43967 -1.6809,0.69618 -1.8043,0.57004 -0.37535,-0.38366 2.00898,-2.21811 3.79478,-2.91963 1.53675,-0.60369 2.3302,-0.67097 9.25584,-0.78497 4.16625,-0.0686 7.575,-0.0366 7.575,0.0712 0,0.10772 -0.33392,0.68727 -0.74205,1.28789 -0.40813,0.60062 -0.6914,1.14269 -0.62948,1.20461 0.0619,0.0619 0.76709,-0.38905 1.56704,-1.00213 1.79703,-1.37723 5.14697,-3.0132 6.71122,-3.27748 1.71172,-0.28919 4.25136,0.52703 5.21941,1.67749 0.42794,0.50858 0.92891,1.5237 1.11326,2.25582 l 0.33518,1.33113 1.38771,-0.80311 c 0.76324,-0.44172 1.87964,-1.18721 2.48088,-1.65666 l 1.18788,-0.97978 12.56763,-0.004 -13.13645,23.06685 c -0.40577,0.69317 1.29879,0.89012 3.77051,-0.44016 1.59875,-0.86044 2.52563,-1.48593 3.14275,-1.92339 0.25156,-4.46968 1.86254,-7.16118 3.78914,-9.96467 2.25161,-3.20617 6.43901,-7.24094 9.24925,-8.91207 3.64988,-2.17046 7.06728,-3.478 10.76824,-3.64953 3.48063,-0.16131 4.56492,0.32035 6.4943,1.79356 l 1.32105,1.00869 8.95252,-15.24919 h 12.79894 l -21.52917,36.76371 c -0.16899,0.40899 0.0374,0.79308 0.32918,1.03536 0.41352,0.34319 0.70319,0.31346 1.90892,-0.19594 1.66325,-0.75023 3.27766,-1.78322 4.62161,-2.83058 2.11887,-7.50697 5.5984,-11.25085 9.11596,-14.70639 4.94969,-4.80088 10.68261,-7.44527 16.17513,-7.46098 2.68006,-0.008 4.62372,0.67825 6.36939,2.24776 0.82402,0.74086 1.52148,1.55505 1.58346,1.55505 l 1.27109,-2.30802 12.6602,8.6e-4 c 0,0.0734 -2.31405,4.00912 -4.95329,8.58399 -2.63923,4.57487 -4.74493,8.3716 -4.67934,8.43721 1.03315,-0.54971 2.10128,-1.02852 3.09121,-1.38311 3.94387,-6.93296 8.6832,-10.45312 14.04752,-13.1283 5.97658,-2.87754 13.42631,-3.51657 18.56816,-1.59276 1.77092,0.66258 4.42604,2.83809 5.13352,4.20622 2.11128,4.08276 -3.60283,9.87443 -11.82984,11.99046 -3.55882,0.91536 -8.34462,0.75167 -11.08043,-0.37894 l -1.89781,-0.78432 -1.43499,2.1982 c -2.44505,3.74544 -2.6398,6.67611 -0.52915,7.96304 1.54287,0.94074 5.58941,0.81694 9.53273,-0.29168 3.16398,-0.8895 7.97482,-2.79048 11.17694,-4.41652 l 1.74993,-0.8886 20.48117,-34.68672 12.94577,0.009 -9.0783,15.26029 1.4309,-0.62021 c 5.53401,-2.39866 9.49259,-2.69716 13.344,-0.0308 1.79394,1.24196 2.52748,3.48892 2.52217,5.8364 -0.007,3.22653 -1.17816,7.14317 -2.62867,8.79295 -0.5631,0.64045 0.0349,0.50236 0.89857,0.27653 3.50652,-8.01054 9.02828,-12.05732 14.65955,-15.10708 6.86025,-3.71536 20.04642,-5.18527 24.725,3.3652 6.77201,-4.40792 10.74944,-3.48972 15.01883,-3.53247 l 7.22894,0.0106 -1.22861,2.53231 c 0.11706,0 1.09351,-0.54998 2.18902,-1.31766 2.93154,-2.05429 4.89365,-3.44577 7.52571,-3.03942 2.42705,0.37472 4.10537,1.71748 4.48917,5.93521 4.45067,-2.57424 6.80245,-7.64918 8.90979,-11.22112 l 4.16715,-7.07524 12.67097,0.0191 -6.86516,11.94071 8.69433,0.0363 -1.30014,2.39506 -9,0.016 -5.35038,9.06964 c -4.03215,7.18317 -8.13998,11.47081 -4.54337,18.06365 l -12.8479,0.006 c -3.80305,-6.89785 0.34745,-9.86626 6.39165,-20.96798 -4.92361,2.76674 -7.51421,4.65962 -11.07153,3.64083 -1.98415,-0.61644 -3.06889,-2.364 -3.13844,-5.38535 -2.8052,0.80776 -5.07206,4.57039 -6.26896,6.60926 l -9.59268,16.25324 -12.52839,-0.13245 13.25036,-22.63496 c 0.19064,-0.29217 0.0666,-1.01098 -0.20792,-1.23887 -1.99198,-0.50576 -4.09212,0.98491 -5.84245,2.11478 0.93343,6.76752 -2.54582,10.84486 -5.40017,13.80029 -5.82054,5.88307 -13.51712,9.28667 -20.99999,9.28667 -9.53488,3.4e-4 -13.41485,-4.7233 -13.79823,-10.58093 -1.62044,0.13014 -3.04163,0.66928 -4.20607,1.64345 -2.48024,2.07495 -4.99873,5.69881 -12.12495,8.20711 -2.44484,0.78033 -5.61767,1.02498 -7.68536,0.5926 -1.59661,-0.33388 -3.46482,-1.54178 -4.18376,-2.70505 -0.35782,-0.57895 -0.27206,-0.37937 -0.75736,-1.31514 l -6.12632,9.86249 125.08217,0.15592 -6.35238,10.64901 -177.09763,-0.0208 -1.2,1.94488 c -5.10061,8.26672 -12.78941,12.77409 -21.75,12.75039 -2.08431,-0.006 -3.24645,-0.16234 -4.32563,-0.58374 z m 6.072,-5.09333 c 2.39087,-1.13107 4.87233,-3.59247 6.74254,-6.68804 0.7761,-1.28461 1.41109,-2.46585 1.41109,-2.625 0,-0.4219 -2.61225,-0.35381 -5.14861,0.13419 -4.27359,0.82226 -7.80579,2.61209 -9.1684,4.64581 -0.97588,1.45652 -0.95048,3.69042 0.0534,4.69428 1.10045,1.10044 3.58144,1.03497 6.11,-0.16124 z m 71.9831,-29.26689 c -0.0437,-0.0404 -1.41011,0.52616 -3.03643,1.259 -6.0661,2.73339 -9.62875,3.54187 -15.64304,3.54989 -3.55796,0.005 -4.53614,-0.10002 -6.39896,-0.68532 -4.69539,-1.52242 -7.28095,-5.69336 -6.35156,-10.29653 -6.41965,2.66723 -10.62991,11.29316 -13.1006,15.41245 l 39.05455,0.225 z m 59.90917,0.38932 c 2.69634,-1.36549 5.66289,-5.24889 9.15165,-11.98009 4.54626,-8.7715 4.75185,-12.67894 0.68766,-13.06945 -1.95282,-0.18765 -3.44956,0.58702 -5.81601,3.01019 -4.41077,4.51649 -8.66318,12.54964 -9.60644,18.14736 -0.28634,1.69924 -0.26567,2.19225 0.13111,3.1281 0.76488,1.80402 2.82747,2.09301 5.45203,0.76389 z M 292.90802,248.7741 c 1.49162,-2.36883 4.23024,-6.84763 4.42232,-9.64037 0.32974,-4.79419 -5.60041,-5.56829 -12.11944,3.97767 -2.73901,4.01081 -4.02705,5.92803 -5.16493,8.72849 -1.18712,2.92164 -0.60875,5.58295 1.41723,6.15189 4.92709,1.38364 8.12249,-3.94155 11.44482,-9.21768 z m 107.22655,8.641 c 1.7322,-0.83854 4.70794,-3.44332 6.45994,-5.65464 0.82882,-1.04612 2.17208,-3.25783 2.98503,-4.91493 3.23594,-6.59606 3.04096,-10.44262 -0.52869,-10.43023 -1.20479,0.004 -3.88793,1.66925 -5.72956,3.55556 -3.47459,3.55888 -8.43131,12.50928 -8.43131,15.22448 0,1.76943 1.56804,3.24912 3.1428,2.96571 0.49104,-0.0884 1.43685,-0.42405 2.10179,-0.74595 z m -71.09461,-3.67239 c 3.82978,-5.43532 5.46674,-8.41277 7.06254,-13.184 1.8306,-5.47323 -4.47277,-5.63783 -7.99788,-1.68938 -3.6493,4.08755 -7.66343,9.34433 -9.02551,13.73614 -2.29828,7.41038 6.17923,6.50423 9.96085,1.13724 z m 39.99149,-5.20724 c 4.09194,-2.0391 7.82962,-9.45189 5.79283,-11.48868 -0.9209,-0.9209 -2.59789,-0.8369 -4.25057,0.21291 -1.62657,1.03321 -4.95237,4.58115 -6.58217,7.02181 -1.55847,2.33382 -1.57614,3.25482 -0.082,4.27016 1.47219,1.00038 3.09211,0.99525 5.12185,-0.0162 z m -212.45848,19.82702 148.91667,0.0475 c 1.7e-4,0.0261 -0.91092,0.54662 -2.02467,1.15669 -3.53229,1.93488 -8.03428,6.75497 -9.37933,9.26823 l -143.68867,-0.15632 z m 6.16588,-10.06025 3.40112,-0.0102 21.11752,-35.90679 -3.35824,-0.0218 1.62473,-2.75089 h 16.42955 c 18.3931,0 18.09464,-0.0307 20.52799,2.11123 0.79454,0.69938 1.59475,1.79357 1.99914,2.73361 1.96026,4.55676 -1.25863,9.4227 -8.34953,12.6218 -1.09514,0.49408 -2.04526,0.94906 -2.1114,1.01108 -0.0661,0.062 0.63268,0.83619 1.55292,1.72039 2.05007,1.96979 2.78093,3.98708 2.53853,7.00683 -0.22358,2.78525 -1.36638,4.89722 -4.13959,7.65019 -1.94113,1.92697 -2.83143,2.5489 -5.42685,3.79104 -3.75746,1.79827 -5.79136,2.36598 -9.88421,2.75885 -0.84526,0.0811 -3.91139,0.19711 -7.95486,0.19077 l -29.64062,-0.0464 z m 31.70057,-1.17736 c 3.51726,-1.89259 7.05025,-6.88603 7.88642,-11.14646 0.44031,-2.24348 -0.24051,-4.73059 -1.6924,-6.18247 -1.00155,-1.00157 -1.02499,-1.00773 -3.4995,-0.9209 l -2.49119,0.0874 -10.93787,19.15771 4.41009,0.0633 c 4.16068,0.0597 4.05599,-0.003 6.32445,-1.05859 z m 9.9963,-22.18389 c 3.23869,-1.24093 5.85337,-3.90137 6.74456,-6.86258 0.52735,-1.75226 0.11182,-3.4474 -1.17454,-4.79094 -0.90395,-0.94417 -1.00987,-0.9747 -3.34962,-0.96541 l -2.41615,0.01 -7.61368,13.28234 c 3.65768,0.27142 6.00417,0.0187 7.80943,-0.67299 z m 64.60425,-3.54835 c -1.86694,-0.46744 -3.15,-2.26981 -3.15,-4.42491 0,-3.27947 2.68331,-6.30764 6.27108,-7.07708 3.91663,-0.83997 7.11165,2.08948 6.28614,5.7636 -0.85382,3.80004 -5.59586,6.69268 -9.40722,5.73839 z"
         style="font-style:normal;font-variant:normal;font-weight:normal;font-stretch:normal;font-size:medium;line-height:125%;font-family:Calibri;-inkscape-font-specification:'Calibri, Normal';text-align:start;letter-spacing:0px;word-spacing:0px;writing-mode:lr-tb;text-anchor:start;fill:#d21b20;fill-opacity:1;stroke:none;stroke-width:1px;stroke-linecap:butt;stroke-linejoin:miter;stroke-opacity:1"
         id="path4224" />
    </g>
  </g>
</svg>
